<mxfile host="app.diagrams.net" modified="2022-10-04T23:11:36.498Z" agent="5.0 (Windows NT 10.0; Win64; x64) AppleWebKit/537.36 (KHTML, like Gecko) Chrome/105.0.0.0 Safari/537.36" etag="2RWab4AD17LPE-V1bVxu" version="20.4.0" type="github">
  <diagram id="C5RBs43oDa-KdzZeNtuy" name="Page-1">
    <mxGraphModel dx="3620" dy="2545" grid="1" gridSize="10" guides="1" tooltips="1" connect="1" arrows="1" fold="1" page="0" pageScale="1" pageWidth="827" pageHeight="1169" math="0" shadow="0">
      <root>
        <mxCell id="WIyWlLk6GJQsqaUBKTNV-0" />
        <mxCell id="WIyWlLk6GJQsqaUBKTNV-1" parent="WIyWlLk6GJQsqaUBKTNV-0" />
        <mxCell id="WIyWlLk6GJQsqaUBKTNV-4" value="Yes" style="rounded=0;html=1;jettySize=auto;orthogonalLoop=1;fontSize=11;endArrow=block;endFill=0;endSize=8;strokeWidth=1;shadow=0;labelBackgroundColor=none;edgeStyle=orthogonalEdgeStyle;" parent="WIyWlLk6GJQsqaUBKTNV-1" source="WIyWlLk6GJQsqaUBKTNV-6" edge="1">
          <mxGeometry x="-0.1236" y="10" relative="1" as="geometry">
            <mxPoint as="offset" />
            <mxPoint x="510" y="260" as="targetPoint" />
          </mxGeometry>
        </mxCell>
        <mxCell id="WIyWlLk6GJQsqaUBKTNV-5" value="No" style="edgeStyle=orthogonalEdgeStyle;rounded=0;html=1;jettySize=auto;orthogonalLoop=1;fontSize=11;endArrow=block;endFill=0;endSize=8;strokeWidth=1;shadow=0;labelBackgroundColor=none;entryX=0.5;entryY=0;entryDx=0;entryDy=0;" parent="WIyWlLk6GJQsqaUBKTNV-1" source="WIyWlLk6GJQsqaUBKTNV-6" target="WIyWlLk6GJQsqaUBKTNV-7" edge="1">
          <mxGeometry x="-0.2" y="9" relative="1" as="geometry">
            <mxPoint as="offset" />
            <mxPoint x="550" y="320" as="targetPoint" />
          </mxGeometry>
        </mxCell>
        <mxCell id="WIyWlLk6GJQsqaUBKTNV-6" value="Existe conversación?" style="rhombus;whiteSpace=wrap;html=1;shadow=0;fontFamily=Helvetica;fontSize=12;align=center;strokeWidth=1;spacing=6;spacingTop=-4;" parent="WIyWlLk6GJQsqaUBKTNV-1" vertex="1">
          <mxGeometry x="321" y="220" width="100" height="80" as="geometry" />
        </mxCell>
        <mxCell id="WIyWlLk6GJQsqaUBKTNV-7" value="Crear conversación y enviar opciones" style="rounded=1;whiteSpace=wrap;html=1;fontSize=12;glass=0;strokeWidth=1;shadow=0;" parent="WIyWlLk6GJQsqaUBKTNV-1" vertex="1">
          <mxGeometry x="311" y="350" width="120" height="40" as="geometry" />
        </mxCell>
        <mxCell id="WIyWlLk6GJQsqaUBKTNV-8" value="No" style="rounded=0;html=1;jettySize=auto;orthogonalLoop=1;fontSize=11;endArrow=block;endFill=0;endSize=8;strokeWidth=1;shadow=0;labelBackgroundColor=none;edgeStyle=orthogonalEdgeStyle;" parent="WIyWlLk6GJQsqaUBKTNV-1" source="WIyWlLk6GJQsqaUBKTNV-10" edge="1">
          <mxGeometry y="20" relative="1" as="geometry">
            <mxPoint y="-1" as="offset" />
            <mxPoint x="221" y="360" as="targetPoint" />
          </mxGeometry>
        </mxCell>
        <mxCell id="WIyWlLk6GJQsqaUBKTNV-9" value="Yes" style="edgeStyle=orthogonalEdgeStyle;rounded=0;html=1;jettySize=auto;orthogonalLoop=1;fontSize=11;endArrow=block;endFill=0;endSize=8;strokeWidth=1;shadow=0;labelBackgroundColor=none;" parent="WIyWlLk6GJQsqaUBKTNV-1" source="WIyWlLk6GJQsqaUBKTNV-10" edge="1">
          <mxGeometry y="10" relative="1" as="geometry">
            <mxPoint as="offset" />
            <mxPoint x="321" y="260" as="targetPoint" />
          </mxGeometry>
        </mxCell>
        <mxCell id="WIyWlLk6GJQsqaUBKTNV-10" value="&lt;font style=&quot;font-size: 10px;&quot;&gt;&lt;br&gt;El usuario esta verificado&lt;/font&gt;" style="rhombus;whiteSpace=wrap;html=1;shadow=0;fontFamily=Helvetica;fontSize=12;align=center;strokeWidth=1;spacing=6;spacingTop=-4;" parent="WIyWlLk6GJQsqaUBKTNV-1" vertex="1">
          <mxGeometry x="171" y="220" width="100" height="80" as="geometry" />
        </mxCell>
        <mxCell id="IGH-7e76oPTL0IEZaC5h-2" value="15 min&lt;br&gt;último msg?" style="rhombus;whiteSpace=wrap;html=1;shadow=0;fontFamily=Helvetica;fontSize=12;align=center;strokeWidth=1;spacing=6;spacingTop=-4;" vertex="1" parent="WIyWlLk6GJQsqaUBKTNV-1">
          <mxGeometry x="450" y="-120" width="100" height="80" as="geometry" />
        </mxCell>
        <mxCell id="IGH-7e76oPTL0IEZaC5h-5" value="Cerrar conversación" style="rounded=1;whiteSpace=wrap;html=1;fontSize=12;glass=0;strokeWidth=1;shadow=0;" vertex="1" parent="WIyWlLk6GJQsqaUBKTNV-1">
          <mxGeometry x="440" y="10" width="120" height="40" as="geometry" />
        </mxCell>
        <mxCell id="IGH-7e76oPTL0IEZaC5h-6" value="&lt;font style=&quot;font-size: 11px;&quot;&gt;Usuario envía &lt;br&gt;mensaje&lt;/font&gt;" style="shape=parallelogram;perimeter=parallelogramPerimeter;whiteSpace=wrap;html=1;fixedSize=1;fontSize=9;" vertex="1" parent="WIyWlLk6GJQsqaUBKTNV-1">
          <mxGeometry x="170" width="120" height="60" as="geometry" />
        </mxCell>
        <mxCell id="IGH-7e76oPTL0IEZaC5h-7" value="" style="rounded=0;html=1;jettySize=auto;orthogonalLoop=1;fontSize=11;endArrow=block;endFill=0;endSize=8;strokeWidth=1;shadow=0;labelBackgroundColor=none;edgeStyle=orthogonalEdgeStyle;exitX=0.413;exitY=1.01;exitDx=0;exitDy=0;exitPerimeter=0;" edge="1" parent="WIyWlLk6GJQsqaUBKTNV-1" source="IGH-7e76oPTL0IEZaC5h-6">
          <mxGeometry relative="1" as="geometry">
            <mxPoint x="214.76" y="93" as="sourcePoint" />
            <mxPoint x="220" y="110" as="targetPoint" />
          </mxGeometry>
        </mxCell>
        <mxCell id="IGH-7e76oPTL0IEZaC5h-8" value="Envía correo con código de verificación" style="rounded=0;whiteSpace=wrap;html=1;fontSize=10;" vertex="1" parent="WIyWlLk6GJQsqaUBKTNV-1">
          <mxGeometry x="161" y="360" width="120" height="60" as="geometry" />
        </mxCell>
        <mxCell id="IGH-7e76oPTL0IEZaC5h-9" value="Existe el usuario?" style="rhombus;whiteSpace=wrap;html=1;shadow=0;fontFamily=Helvetica;fontSize=12;align=center;strokeWidth=1;spacing=6;spacingTop=-4;" vertex="1" parent="WIyWlLk6GJQsqaUBKTNV-1">
          <mxGeometry x="170" y="110" width="100" height="80" as="geometry" />
        </mxCell>
        <mxCell id="IGH-7e76oPTL0IEZaC5h-13" value="No" style="edgeStyle=orthogonalEdgeStyle;rounded=0;html=1;jettySize=auto;orthogonalLoop=1;fontSize=11;endArrow=block;endFill=0;endSize=8;strokeWidth=1;shadow=0;labelBackgroundColor=none;" edge="1" parent="WIyWlLk6GJQsqaUBKTNV-1">
          <mxGeometry y="10" relative="1" as="geometry">
            <mxPoint as="offset" />
            <mxPoint x="270" y="150" as="sourcePoint" />
            <mxPoint x="320" y="150" as="targetPoint" />
          </mxGeometry>
        </mxCell>
        <mxCell id="IGH-7e76oPTL0IEZaC5h-14" value="Yes" style="rounded=0;html=1;jettySize=auto;orthogonalLoop=1;fontSize=11;endArrow=block;endFill=0;endSize=8;strokeWidth=1;shadow=0;labelBackgroundColor=none;edgeStyle=orthogonalEdgeStyle;" edge="1" parent="WIyWlLk6GJQsqaUBKTNV-1">
          <mxGeometry y="20" relative="1" as="geometry">
            <mxPoint as="offset" />
            <mxPoint x="219.41" y="190" as="sourcePoint" />
            <mxPoint x="220" y="220" as="targetPoint" />
            <Array as="points">
              <mxPoint x="219.41" y="190" />
            </Array>
          </mxGeometry>
        </mxCell>
        <mxCell id="IGH-7e76oPTL0IEZaC5h-16" value="Yes" style="rounded=0;html=1;jettySize=auto;orthogonalLoop=1;fontSize=11;endArrow=block;endFill=0;endSize=8;strokeWidth=1;shadow=0;labelBackgroundColor=none;edgeStyle=orthogonalEdgeStyle;entryX=0.5;entryY=0;entryDx=0;entryDy=0;" edge="1" parent="WIyWlLk6GJQsqaUBKTNV-1" target="IGH-7e76oPTL0IEZaC5h-5">
          <mxGeometry x="-0.2098" y="21" relative="1" as="geometry">
            <mxPoint as="offset" />
            <mxPoint x="499.4100000000003" y="-40" as="sourcePoint" />
            <mxPoint x="500" y="-10" as="targetPoint" />
            <Array as="points" />
          </mxGeometry>
        </mxCell>
        <mxCell id="IGH-7e76oPTL0IEZaC5h-18" value="Invitación a registrarse" style="rounded=1;whiteSpace=wrap;html=1;fontSize=12;glass=0;strokeWidth=1;shadow=0;" vertex="1" parent="WIyWlLk6GJQsqaUBKTNV-1">
          <mxGeometry x="320" y="130" width="120" height="40" as="geometry" />
        </mxCell>
        <mxCell id="IGH-7e76oPTL0IEZaC5h-19" value="" style="endArrow=block;html=1;rounded=0;fontSize=10;endFill=0;exitX=0.5;exitY=1;exitDx=0;exitDy=0;" edge="1" parent="WIyWlLk6GJQsqaUBKTNV-1" source="IGH-7e76oPTL0IEZaC5h-8">
          <mxGeometry width="50" height="50" relative="1" as="geometry">
            <mxPoint x="301" y="380" as="sourcePoint" />
            <mxPoint x="221" y="460" as="targetPoint" />
          </mxGeometry>
        </mxCell>
        <mxCell id="IGH-7e76oPTL0IEZaC5h-20" value="&lt;font style=&quot;font-size: 10px;&quot;&gt;El código de usuario coincide&lt;/font&gt;" style="rhombus;whiteSpace=wrap;html=1;shadow=0;fontFamily=Helvetica;fontSize=12;align=center;strokeWidth=1;spacing=6;spacingTop=-4;" vertex="1" parent="WIyWlLk6GJQsqaUBKTNV-1">
          <mxGeometry x="171" y="460" width="100" height="80" as="geometry" />
        </mxCell>
        <mxCell id="IGH-7e76oPTL0IEZaC5h-21" value="Yes" style="edgeStyle=orthogonalEdgeStyle;rounded=0;html=1;jettySize=auto;orthogonalLoop=1;fontSize=11;endArrow=block;endFill=0;endSize=8;strokeWidth=1;shadow=0;labelBackgroundColor=none;" edge="1" parent="WIyWlLk6GJQsqaUBKTNV-1">
          <mxGeometry y="10" relative="1" as="geometry">
            <mxPoint as="offset" />
            <mxPoint x="271" y="499.40999999999997" as="sourcePoint" />
            <mxPoint x="321" y="499.40999999999997" as="targetPoint" />
          </mxGeometry>
        </mxCell>
        <mxCell id="IGH-7e76oPTL0IEZaC5h-22" value="No" style="rounded=0;html=1;jettySize=auto;orthogonalLoop=1;fontSize=11;endArrow=block;endFill=0;endSize=8;strokeWidth=1;shadow=0;labelBackgroundColor=none;edgeStyle=orthogonalEdgeStyle;" edge="1" parent="WIyWlLk6GJQsqaUBKTNV-1">
          <mxGeometry y="20" relative="1" as="geometry">
            <mxPoint y="-1" as="offset" />
            <mxPoint x="220.41" y="540" as="sourcePoint" />
            <mxPoint x="220.41" y="600" as="targetPoint" />
          </mxGeometry>
        </mxCell>
        <mxCell id="IGH-7e76oPTL0IEZaC5h-23" value="&lt;span style=&quot;font-size: 10px;&quot;&gt;Posee mas de 2 errores?&lt;/span&gt;" style="rhombus;whiteSpace=wrap;html=1;shadow=0;fontFamily=Helvetica;fontSize=12;align=center;strokeWidth=1;spacing=6;spacingTop=-4;" vertex="1" parent="WIyWlLk6GJQsqaUBKTNV-1">
          <mxGeometry x="161" y="600" width="120" height="100" as="geometry" />
        </mxCell>
        <mxCell id="IGH-7e76oPTL0IEZaC5h-24" value="No" style="rounded=0;html=1;jettySize=auto;orthogonalLoop=1;fontSize=11;endArrow=block;endFill=0;endSize=8;strokeWidth=1;shadow=0;labelBackgroundColor=none;edgeStyle=orthogonalEdgeStyle;" edge="1" parent="WIyWlLk6GJQsqaUBKTNV-1">
          <mxGeometry y="20" relative="1" as="geometry">
            <mxPoint y="-1" as="offset" />
            <mxPoint x="220.41000000000028" y="699.9999999999998" as="sourcePoint" />
            <mxPoint x="220.41000000000028" y="759.9999999999998" as="targetPoint" />
            <Array as="points">
              <mxPoint x="219.99999999999997" y="720" />
              <mxPoint x="219.99999999999997" y="720" />
            </Array>
          </mxGeometry>
        </mxCell>
        <mxCell id="IGH-7e76oPTL0IEZaC5h-26" value="&lt;font style=&quot;font-size: 10px;&quot;&gt;Pasaron 7 &lt;br&gt;minutos desde el envío del código?&lt;/font&gt;" style="rhombus;whiteSpace=wrap;html=1;shadow=0;fontFamily=Helvetica;fontSize=12;align=center;strokeWidth=1;spacing=6;spacingTop=-4;" vertex="1" parent="WIyWlLk6GJQsqaUBKTNV-1">
          <mxGeometry x="161" y="760" width="120" height="100" as="geometry" />
        </mxCell>
        <mxCell id="IGH-7e76oPTL0IEZaC5h-27" value="No" style="rounded=0;html=1;jettySize=auto;orthogonalLoop=1;fontSize=11;endArrow=block;endFill=0;endSize=8;strokeWidth=1;shadow=0;labelBackgroundColor=none;edgeStyle=orthogonalEdgeStyle;" edge="1" parent="WIyWlLk6GJQsqaUBKTNV-1">
          <mxGeometry y="20" relative="1" as="geometry">
            <mxPoint y="-1" as="offset" />
            <mxPoint x="220.4100000000003" y="859.9999999999998" as="sourcePoint" />
            <mxPoint x="220.4100000000003" y="919.9999999999998" as="targetPoint" />
            <Array as="points">
              <mxPoint x="219.99999999999997" y="880" />
              <mxPoint x="219.99999999999997" y="880" />
            </Array>
          </mxGeometry>
        </mxCell>
        <mxCell id="IGH-7e76oPTL0IEZaC5h-28" value="Cerrar conversación" style="rounded=1;whiteSpace=wrap;html=1;fontSize=12;glass=0;strokeWidth=1;shadow=0;" vertex="1" parent="WIyWlLk6GJQsqaUBKTNV-1">
          <mxGeometry x="331" y="630" width="120" height="40" as="geometry" />
        </mxCell>
        <mxCell id="IGH-7e76oPTL0IEZaC5h-29" value="Yes" style="edgeStyle=orthogonalEdgeStyle;rounded=0;html=1;jettySize=auto;orthogonalLoop=1;fontSize=11;endArrow=block;endFill=0;endSize=8;strokeWidth=1;shadow=0;labelBackgroundColor=none;" edge="1" parent="WIyWlLk6GJQsqaUBKTNV-1">
          <mxGeometry y="10" relative="1" as="geometry">
            <mxPoint as="offset" />
            <mxPoint x="281" y="649.4099999999999" as="sourcePoint" />
            <mxPoint x="331" y="649.4099999999999" as="targetPoint" />
          </mxGeometry>
        </mxCell>
        <mxCell id="IGH-7e76oPTL0IEZaC5h-30" value="Yes" style="edgeStyle=orthogonalEdgeStyle;rounded=0;html=1;jettySize=auto;orthogonalLoop=1;fontSize=11;endArrow=block;endFill=0;endSize=8;strokeWidth=1;shadow=0;labelBackgroundColor=none;" edge="1" parent="WIyWlLk6GJQsqaUBKTNV-1">
          <mxGeometry y="10" relative="1" as="geometry">
            <mxPoint as="offset" />
            <mxPoint x="281" y="809.4099999999999" as="sourcePoint" />
            <mxPoint x="331" y="809.4099999999999" as="targetPoint" />
          </mxGeometry>
        </mxCell>
        <mxCell id="IGH-7e76oPTL0IEZaC5h-32" value="Aumentar strikes y esperar código correcto" style="rounded=1;whiteSpace=wrap;html=1;fontSize=10;" vertex="1" parent="WIyWlLk6GJQsqaUBKTNV-1">
          <mxGeometry x="161" y="920" width="120" height="60" as="geometry" />
        </mxCell>
        <mxCell id="IGH-7e76oPTL0IEZaC5h-33" value="Regenerar código de verificación y enviar" style="rounded=1;whiteSpace=wrap;html=1;fontSize=10;" vertex="1" parent="WIyWlLk6GJQsqaUBKTNV-1">
          <mxGeometry x="331" y="780" width="120" height="60" as="geometry" />
        </mxCell>
        <mxCell id="IGH-7e76oPTL0IEZaC5h-34" value="Actualizar estado de usuario a verificado" style="rounded=1;whiteSpace=wrap;html=1;fontSize=10;" vertex="1" parent="WIyWlLk6GJQsqaUBKTNV-1">
          <mxGeometry x="321" y="470" width="120" height="60" as="geometry" />
        </mxCell>
        <mxCell id="IGH-7e76oPTL0IEZaC5h-36" value="&lt;font style=&quot;font-size: 10px;&quot;&gt;&lt;br&gt;La conversación &lt;br&gt;tiene un tipo &lt;br&gt;asignado?&lt;/font&gt;" style="rhombus;whiteSpace=wrap;html=1;shadow=0;fontFamily=Helvetica;fontSize=12;align=center;strokeWidth=1;spacing=6;spacingTop=-4;" vertex="1" parent="WIyWlLk6GJQsqaUBKTNV-1">
          <mxGeometry x="510" y="205" width="120" height="110" as="geometry" />
        </mxCell>
        <mxCell id="IGH-7e76oPTL0IEZaC5h-37" value="Yes" style="rounded=0;html=1;jettySize=auto;orthogonalLoop=1;fontSize=11;endArrow=block;endFill=0;endSize=8;strokeWidth=1;shadow=0;labelBackgroundColor=none;edgeStyle=orthogonalEdgeStyle;" edge="1" parent="WIyWlLk6GJQsqaUBKTNV-1">
          <mxGeometry x="-0.1236" y="10" relative="1" as="geometry">
            <mxPoint as="offset" />
            <mxPoint x="630" y="259.5" as="sourcePoint" />
            <mxPoint x="700" y="260" as="targetPoint" />
            <Array as="points">
              <mxPoint x="689" y="259.5" />
              <mxPoint x="689" y="259.5" />
            </Array>
          </mxGeometry>
        </mxCell>
        <mxCell id="IGH-7e76oPTL0IEZaC5h-38" value="No" style="edgeStyle=orthogonalEdgeStyle;rounded=0;html=1;jettySize=auto;orthogonalLoop=1;fontSize=11;endArrow=block;endFill=0;endSize=8;strokeWidth=1;shadow=0;labelBackgroundColor=none;entryX=0.5;entryY=0;entryDx=0;entryDy=0;" edge="1" parent="WIyWlLk6GJQsqaUBKTNV-1">
          <mxGeometry x="-0.2" y="9" relative="1" as="geometry">
            <mxPoint as="offset" />
            <mxPoint x="569.29" y="315" as="sourcePoint" />
            <mxPoint x="569.29" y="365" as="targetPoint" />
          </mxGeometry>
        </mxCell>
        <mxCell id="IGH-7e76oPTL0IEZaC5h-39" value="Enviar mensaje de ayuda o cerrar" style="rounded=1;whiteSpace=wrap;html=1;fontSize=12;glass=0;strokeWidth=1;shadow=0;" vertex="1" parent="WIyWlLk6GJQsqaUBKTNV-1">
          <mxGeometry x="700" y="400" width="120" height="40" as="geometry" />
        </mxCell>
        <mxCell id="IGH-7e76oPTL0IEZaC5h-40" value="&lt;font style=&quot;font-size: 10px;&quot;&gt;Contiene &quot;Ayuda&quot; &lt;br&gt;o &quot;Salir&quot;&lt;br&gt;en el mensaje?&lt;/font&gt;" style="rhombus;whiteSpace=wrap;html=1;shadow=0;fontFamily=Helvetica;fontSize=12;align=center;strokeWidth=1;spacing=6;spacingTop=-4;" vertex="1" parent="WIyWlLk6GJQsqaUBKTNV-1">
          <mxGeometry x="510" y="365" width="120" height="110" as="geometry" />
        </mxCell>
        <mxCell id="IGH-7e76oPTL0IEZaC5h-41" value="Yes" style="rounded=0;html=1;jettySize=auto;orthogonalLoop=1;fontSize=11;endArrow=block;endFill=0;endSize=8;strokeWidth=1;shadow=0;labelBackgroundColor=none;edgeStyle=orthogonalEdgeStyle;" edge="1" parent="WIyWlLk6GJQsqaUBKTNV-1">
          <mxGeometry x="-0.1236" y="10" relative="1" as="geometry">
            <mxPoint as="offset" />
            <mxPoint x="630" y="419.5" as="sourcePoint" />
            <mxPoint x="700" y="420" as="targetPoint" />
            <Array as="points">
              <mxPoint x="689" y="419.5" />
              <mxPoint x="689" y="419.5" />
            </Array>
          </mxGeometry>
        </mxCell>
        <mxCell id="IGH-7e76oPTL0IEZaC5h-42" value="No" style="edgeStyle=orthogonalEdgeStyle;rounded=0;html=1;jettySize=auto;orthogonalLoop=1;fontSize=11;endArrow=block;endFill=0;endSize=8;strokeWidth=1;shadow=0;labelBackgroundColor=none;entryX=0.5;entryY=0;entryDx=0;entryDy=0;" edge="1" parent="WIyWlLk6GJQsqaUBKTNV-1">
          <mxGeometry x="-0.2" y="9" relative="1" as="geometry">
            <mxPoint as="offset" />
            <mxPoint x="569.29" y="475" as="sourcePoint" />
            <mxPoint x="569.29" y="525" as="targetPoint" />
          </mxGeometry>
        </mxCell>
        <mxCell id="IGH-7e76oPTL0IEZaC5h-43" value="Enviar opciones" style="rounded=1;whiteSpace=wrap;html=1;fontSize=12;glass=0;strokeWidth=1;shadow=0;" vertex="1" parent="WIyWlLk6GJQsqaUBKTNV-1">
          <mxGeometry x="509" y="687" width="120" height="40" as="geometry" />
        </mxCell>
        <mxCell id="IGH-7e76oPTL0IEZaC5h-44" value="&lt;font style=&quot;font-size: 10px;&quot;&gt;&lt;br&gt;Se selecciono una de las opciones disponibles?&lt;/font&gt;" style="rhombus;whiteSpace=wrap;html=1;shadow=0;fontFamily=Helvetica;fontSize=12;align=center;strokeWidth=1;spacing=6;spacingTop=-4;" vertex="1" parent="WIyWlLk6GJQsqaUBKTNV-1">
          <mxGeometry x="509" y="526" width="120" height="110" as="geometry" />
        </mxCell>
        <mxCell id="IGH-7e76oPTL0IEZaC5h-45" value="Yes" style="rounded=0;html=1;jettySize=auto;orthogonalLoop=1;fontSize=11;endArrow=block;endFill=0;endSize=8;strokeWidth=1;shadow=0;labelBackgroundColor=none;edgeStyle=orthogonalEdgeStyle;" edge="1" parent="WIyWlLk6GJQsqaUBKTNV-1">
          <mxGeometry x="-0.1236" y="10" relative="1" as="geometry">
            <mxPoint as="offset" />
            <mxPoint x="629" y="580.5" as="sourcePoint" />
            <mxPoint x="699" y="581" as="targetPoint" />
            <Array as="points">
              <mxPoint x="688" y="580.5" />
              <mxPoint x="688" y="580.5" />
            </Array>
          </mxGeometry>
        </mxCell>
        <mxCell id="IGH-7e76oPTL0IEZaC5h-46" value="No" style="edgeStyle=orthogonalEdgeStyle;rounded=0;html=1;jettySize=auto;orthogonalLoop=1;fontSize=11;endArrow=block;endFill=0;endSize=8;strokeWidth=1;shadow=0;labelBackgroundColor=none;entryX=0.5;entryY=0;entryDx=0;entryDy=0;" edge="1" parent="WIyWlLk6GJQsqaUBKTNV-1">
          <mxGeometry x="-0.2" y="9" relative="1" as="geometry">
            <mxPoint as="offset" />
            <mxPoint x="568.29" y="636" as="sourcePoint" />
            <mxPoint x="568.29" y="686" as="targetPoint" />
          </mxGeometry>
        </mxCell>
        <mxCell id="IGH-7e76oPTL0IEZaC5h-47" value="Actualizar tipo de conversación" style="rounded=1;whiteSpace=wrap;html=1;fontSize=12;glass=0;strokeWidth=1;shadow=0;" vertex="1" parent="WIyWlLk6GJQsqaUBKTNV-1">
          <mxGeometry x="700" y="560" width="120" height="40" as="geometry" />
        </mxCell>
        <mxCell id="IGH-7e76oPTL0IEZaC5h-48" value="Enviar mensaje de ayuda o cerrar" style="rounded=1;whiteSpace=wrap;html=1;fontSize=12;glass=0;strokeWidth=1;shadow=0;" vertex="1" parent="WIyWlLk6GJQsqaUBKTNV-1">
          <mxGeometry x="880" y="100" width="120" height="40" as="geometry" />
        </mxCell>
        <mxCell id="IGH-7e76oPTL0IEZaC5h-49" value="&lt;font style=&quot;font-size: 10px;&quot;&gt;Contiene &quot;Ayuda&quot; &lt;br&gt;o &quot;Salir&quot;&lt;br&gt;en el mensaje?&lt;/font&gt;" style="rhombus;whiteSpace=wrap;html=1;shadow=0;fontFamily=Helvetica;fontSize=12;align=center;strokeWidth=1;spacing=6;spacingTop=-4;" vertex="1" parent="WIyWlLk6GJQsqaUBKTNV-1">
          <mxGeometry x="880" y="204" width="120" height="110" as="geometry" />
        </mxCell>
        <mxCell id="IGH-7e76oPTL0IEZaC5h-50" value="No" style="rounded=0;html=1;jettySize=auto;orthogonalLoop=1;fontSize=11;endArrow=block;endFill=0;endSize=8;strokeWidth=1;shadow=0;labelBackgroundColor=none;edgeStyle=orthogonalEdgeStyle;" edge="1" parent="WIyWlLk6GJQsqaUBKTNV-1">
          <mxGeometry x="-0.1236" y="10" relative="1" as="geometry">
            <mxPoint as="offset" />
            <mxPoint x="1000" y="258.5" as="sourcePoint" />
            <mxPoint x="1070" y="259" as="targetPoint" />
            <Array as="points">
              <mxPoint x="1059" y="258.5" />
              <mxPoint x="1059" y="258.5" />
            </Array>
          </mxGeometry>
        </mxCell>
        <mxCell id="IGH-7e76oPTL0IEZaC5h-51" value="Yes" style="edgeStyle=orthogonalEdgeStyle;rounded=0;html=1;jettySize=auto;orthogonalLoop=1;fontSize=11;endArrow=block;endFill=0;endSize=8;strokeWidth=1;shadow=0;labelBackgroundColor=none;entryX=0.5;entryY=0;entryDx=0;entryDy=0;exitX=0.5;exitY=0;exitDx=0;exitDy=0;" edge="1" parent="WIyWlLk6GJQsqaUBKTNV-1" source="IGH-7e76oPTL0IEZaC5h-49">
          <mxGeometry x="-0.2" y="9" relative="1" as="geometry">
            <mxPoint as="offset" />
            <mxPoint x="939.29" y="90" as="sourcePoint" />
            <mxPoint x="939.29" y="140" as="targetPoint" />
          </mxGeometry>
        </mxCell>
        <mxCell id="IGH-7e76oPTL0IEZaC5h-52" value="&lt;span style=&quot;font-size: 10px;&quot;&gt;Es de tipo incidencia ?&lt;/span&gt;" style="rhombus;whiteSpace=wrap;html=1;shadow=0;fontFamily=Helvetica;fontSize=12;align=center;strokeWidth=1;spacing=6;spacingTop=-4;" vertex="1" parent="WIyWlLk6GJQsqaUBKTNV-1">
          <mxGeometry x="1070" y="205" width="120" height="110" as="geometry" />
        </mxCell>
        <mxCell id="IGH-7e76oPTL0IEZaC5h-53" value="Yes" style="rounded=0;html=1;jettySize=auto;orthogonalLoop=1;fontSize=11;endArrow=block;endFill=0;endSize=8;strokeWidth=1;shadow=0;labelBackgroundColor=none;edgeStyle=orthogonalEdgeStyle;" edge="1" parent="WIyWlLk6GJQsqaUBKTNV-1">
          <mxGeometry x="-0.1236" y="10" relative="1" as="geometry">
            <mxPoint as="offset" />
            <mxPoint x="1190" y="259.41" as="sourcePoint" />
            <mxPoint x="1260" y="259.9099999999998" as="targetPoint" />
            <Array as="points">
              <mxPoint x="1249" y="259.41" />
              <mxPoint x="1249" y="259.41" />
            </Array>
          </mxGeometry>
        </mxCell>
        <mxCell id="IGH-7e76oPTL0IEZaC5h-54" value="&lt;span style=&quot;font-size: 10px;&quot;&gt;Contiene &quot;Editar&lt;/span&gt;&lt;span style=&quot;font-size: 10px;&quot;&gt;&quot;&lt;/span&gt;&lt;br style=&quot;font-size: 10px;&quot;&gt;&lt;span style=&quot;font-size: 10px;&quot;&gt;en el mensaje?&lt;/span&gt;" style="rhombus;whiteSpace=wrap;html=1;shadow=0;fontFamily=Helvetica;fontSize=12;align=center;strokeWidth=1;spacing=6;spacingTop=-4;" vertex="1" parent="WIyWlLk6GJQsqaUBKTNV-1">
          <mxGeometry x="1260" y="205" width="120" height="110" as="geometry" />
        </mxCell>
        <mxCell id="IGH-7e76oPTL0IEZaC5h-55" value="Yes" style="rounded=0;html=1;jettySize=auto;orthogonalLoop=1;fontSize=11;endArrow=block;endFill=0;endSize=8;strokeWidth=1;shadow=0;labelBackgroundColor=none;edgeStyle=orthogonalEdgeStyle;entryX=0;entryY=0.5;entryDx=0;entryDy=0;" edge="1" parent="WIyWlLk6GJQsqaUBKTNV-1" target="IGH-7e76oPTL0IEZaC5h-56">
          <mxGeometry x="-0.2278" y="15" relative="1" as="geometry">
            <mxPoint y="1" as="offset" />
            <mxPoint x="1380" y="259.4100000000001" as="sourcePoint" />
            <mxPoint x="1450" y="259.90999999999985" as="targetPoint" />
          </mxGeometry>
        </mxCell>
        <mxCell id="IGH-7e76oPTL0IEZaC5h-56" value="&lt;span style=&quot;font-size: 10px;&quot;&gt;Esta en modo edición?&lt;/span&gt;" style="rhombus;whiteSpace=wrap;html=1;shadow=0;fontFamily=Helvetica;fontSize=12;align=center;strokeWidth=1;spacing=6;spacingTop=-4;" vertex="1" parent="WIyWlLk6GJQsqaUBKTNV-1">
          <mxGeometry x="1450" y="30" width="120" height="110" as="geometry" />
        </mxCell>
        <mxCell id="IGH-7e76oPTL0IEZaC5h-57" value="Yes" style="rounded=0;html=1;jettySize=auto;orthogonalLoop=1;fontSize=11;endArrow=block;endFill=0;endSize=8;strokeWidth=1;shadow=0;labelBackgroundColor=none;edgeStyle=orthogonalEdgeStyle;" edge="1" parent="WIyWlLk6GJQsqaUBKTNV-1">
          <mxGeometry x="-0.1236" y="10" relative="1" as="geometry">
            <mxPoint as="offset" />
            <mxPoint x="1570" y="85.41000000000008" as="sourcePoint" />
            <mxPoint x="1640" y="85.90999999999963" as="targetPoint" />
            <Array as="points">
              <mxPoint x="1629" y="85.41000000000003" />
              <mxPoint x="1629" y="85.41000000000003" />
            </Array>
          </mxGeometry>
        </mxCell>
        <mxCell id="IGH-7e76oPTL0IEZaC5h-58" value="Enviar mensaje de recordatorio" style="rounded=1;whiteSpace=wrap;html=1;fontSize=12;glass=0;strokeWidth=1;shadow=0;" vertex="1" parent="WIyWlLk6GJQsqaUBKTNV-1">
          <mxGeometry x="1640" y="66" width="120" height="40" as="geometry" />
        </mxCell>
        <mxCell id="IGH-7e76oPTL0IEZaC5h-60" value="Asignar modo edición y enviar opciones" style="rounded=1;whiteSpace=wrap;html=1;fontSize=12;glass=0;strokeWidth=1;shadow=0;" vertex="1" parent="WIyWlLk6GJQsqaUBKTNV-1">
          <mxGeometry x="1450" y="192" width="120" height="40" as="geometry" />
        </mxCell>
        <mxCell id="IGH-7e76oPTL0IEZaC5h-61" value="No" style="edgeStyle=orthogonalEdgeStyle;rounded=0;html=1;jettySize=auto;orthogonalLoop=1;fontSize=11;endArrow=block;endFill=0;endSize=8;strokeWidth=1;shadow=0;labelBackgroundColor=none;entryX=0.5;entryY=0;entryDx=0;entryDy=0;" edge="1" parent="WIyWlLk6GJQsqaUBKTNV-1">
          <mxGeometry x="-0.2" y="9" relative="1" as="geometry">
            <mxPoint as="offset" />
            <mxPoint x="1509.29" y="141" as="sourcePoint" />
            <mxPoint x="1509.29" y="191" as="targetPoint" />
          </mxGeometry>
        </mxCell>
        <mxCell id="IGH-7e76oPTL0IEZaC5h-62" value="No" style="edgeStyle=orthogonalEdgeStyle;rounded=0;html=1;jettySize=auto;orthogonalLoop=1;fontSize=11;endArrow=block;endFill=0;endSize=8;strokeWidth=1;shadow=0;labelBackgroundColor=none;entryX=0.5;entryY=0;entryDx=0;entryDy=0;" edge="1" parent="WIyWlLk6GJQsqaUBKTNV-1">
          <mxGeometry x="-0.2" y="9" relative="1" as="geometry">
            <mxPoint as="offset" />
            <mxPoint x="1319.29" y="314" as="sourcePoint" />
            <mxPoint x="1319.29" y="364" as="targetPoint" />
          </mxGeometry>
        </mxCell>
        <mxCell id="IGH-7e76oPTL0IEZaC5h-63" value="&lt;span style=&quot;font-size: 10px;&quot;&gt;Esta en modo edición?&lt;/span&gt;" style="rhombus;whiteSpace=wrap;html=1;shadow=0;fontFamily=Helvetica;fontSize=12;align=center;strokeWidth=1;spacing=6;spacingTop=-4;" vertex="1" parent="WIyWlLk6GJQsqaUBKTNV-1">
          <mxGeometry x="1260" y="364" width="120" height="110" as="geometry" />
        </mxCell>
        <mxCell id="IGH-7e76oPTL0IEZaC5h-64" value="No" style="edgeStyle=orthogonalEdgeStyle;rounded=0;html=1;jettySize=auto;orthogonalLoop=1;fontSize=11;endArrow=block;endFill=0;endSize=8;strokeWidth=1;shadow=0;labelBackgroundColor=none;entryX=0.5;entryY=0;entryDx=0;entryDy=0;" edge="1" parent="WIyWlLk6GJQsqaUBKTNV-1">
          <mxGeometry x="-0.2" y="9" relative="1" as="geometry">
            <mxPoint as="offset" />
            <mxPoint x="1319.29" y="476" as="sourcePoint" />
            <mxPoint x="1319.29" y="526" as="targetPoint" />
          </mxGeometry>
        </mxCell>
        <mxCell id="IGH-7e76oPTL0IEZaC5h-65" value="&lt;span style=&quot;font-size: 10px;&quot;&gt;Contiene una opción válida?&lt;/span&gt;" style="rhombus;whiteSpace=wrap;html=1;shadow=0;fontFamily=Helvetica;fontSize=12;align=center;strokeWidth=1;spacing=6;spacingTop=-4;" vertex="1" parent="WIyWlLk6GJQsqaUBKTNV-1">
          <mxGeometry x="1260" y="526" width="120" height="110" as="geometry" />
        </mxCell>
        <mxCell id="IGH-7e76oPTL0IEZaC5h-66" value="Aumentar los strikes&amp;nbsp; Enviar mensaje de error y opciones" style="rounded=1;whiteSpace=wrap;html=1;fontSize=11;glass=0;strokeWidth=1;shadow=0;" vertex="1" parent="WIyWlLk6GJQsqaUBKTNV-1">
          <mxGeometry x="1260" y="687" width="120" height="40" as="geometry" />
        </mxCell>
        <mxCell id="IGH-7e76oPTL0IEZaC5h-67" value="No" style="edgeStyle=orthogonalEdgeStyle;rounded=0;html=1;jettySize=auto;orthogonalLoop=1;fontSize=11;endArrow=block;endFill=0;endSize=8;strokeWidth=1;shadow=0;labelBackgroundColor=none;entryX=0.5;entryY=0;entryDx=0;entryDy=0;" edge="1" parent="WIyWlLk6GJQsqaUBKTNV-1">
          <mxGeometry x="-0.2" y="9" relative="1" as="geometry">
            <mxPoint as="offset" />
            <mxPoint x="1319.29" y="636" as="sourcePoint" />
            <mxPoint x="1319.29" y="686" as="targetPoint" />
          </mxGeometry>
        </mxCell>
        <mxCell id="IGH-7e76oPTL0IEZaC5h-68" value="&lt;span style=&quot;font-size: 10px;&quot;&gt;Posee más de dos errores&lt;/span&gt;" style="rhombus;whiteSpace=wrap;html=1;shadow=0;fontFamily=Helvetica;fontSize=12;align=center;strokeWidth=1;spacing=6;spacingTop=-4;" vertex="1" parent="WIyWlLk6GJQsqaUBKTNV-1">
          <mxGeometry x="700" y="204" width="120" height="110" as="geometry" />
        </mxCell>
        <mxCell id="IGH-7e76oPTL0IEZaC5h-69" value="No" style="rounded=0;html=1;jettySize=auto;orthogonalLoop=1;fontSize=11;endArrow=block;endFill=0;endSize=8;strokeWidth=1;shadow=0;labelBackgroundColor=none;edgeStyle=orthogonalEdgeStyle;" edge="1" parent="WIyWlLk6GJQsqaUBKTNV-1">
          <mxGeometry x="-0.1236" y="10" relative="1" as="geometry">
            <mxPoint as="offset" />
            <mxPoint x="820" y="258.5" as="sourcePoint" />
            <mxPoint x="879" y="259" as="targetPoint" />
            <Array as="points">
              <mxPoint x="879" y="258.5" />
              <mxPoint x="879" y="258.5" />
            </Array>
          </mxGeometry>
        </mxCell>
        <mxCell id="IGH-7e76oPTL0IEZaC5h-70" value="Yes" style="edgeStyle=orthogonalEdgeStyle;rounded=0;html=1;jettySize=auto;orthogonalLoop=1;fontSize=11;endArrow=block;endFill=0;endSize=8;strokeWidth=1;shadow=0;labelBackgroundColor=none;entryX=0.5;entryY=0;entryDx=0;entryDy=0;exitX=0.5;exitY=0;exitDx=0;exitDy=0;" edge="1" parent="WIyWlLk6GJQsqaUBKTNV-1" source="IGH-7e76oPTL0IEZaC5h-68">
          <mxGeometry x="-0.2" y="9" relative="1" as="geometry">
            <mxPoint as="offset" />
            <mxPoint x="759.29" y="90" as="sourcePoint" />
            <mxPoint x="759.29" y="140" as="targetPoint" />
          </mxGeometry>
        </mxCell>
        <mxCell id="IGH-7e76oPTL0IEZaC5h-71" value="Cerrar conversación" style="rounded=1;whiteSpace=wrap;html=1;fontSize=12;glass=0;strokeWidth=1;shadow=0;" vertex="1" parent="WIyWlLk6GJQsqaUBKTNV-1">
          <mxGeometry x="700" y="100" width="120" height="40" as="geometry" />
        </mxCell>
        <mxCell id="IGH-7e76oPTL0IEZaC5h-72" value="Yes" style="rounded=0;html=1;jettySize=auto;orthogonalLoop=1;fontSize=11;endArrow=block;endFill=0;endSize=8;strokeWidth=1;shadow=0;labelBackgroundColor=none;edgeStyle=orthogonalEdgeStyle;entryX=0;entryY=0.5;entryDx=0;entryDy=0;" edge="1" parent="WIyWlLk6GJQsqaUBKTNV-1" target="IGH-7e76oPTL0IEZaC5h-74">
          <mxGeometry x="-0.0013" y="15" relative="1" as="geometry">
            <mxPoint as="offset" />
            <mxPoint x="1380" y="580.24" as="sourcePoint" />
            <mxPoint x="1450" y="580.7399999999998" as="targetPoint" />
          </mxGeometry>
        </mxCell>
        <mxCell id="IGH-7e76oPTL0IEZaC5h-74" value="Devolver mensaje acorde con el paso de creación" style="rounded=1;whiteSpace=wrap;html=1;fontSize=11;" vertex="1" parent="WIyWlLk6GJQsqaUBKTNV-1">
          <mxGeometry x="1450" y="610" width="120" height="60" as="geometry" />
        </mxCell>
        <mxCell id="IGH-7e76oPTL0IEZaC5h-75" value="Yes" style="rounded=0;html=1;jettySize=auto;orthogonalLoop=1;fontSize=11;endArrow=block;endFill=0;endSize=8;strokeWidth=1;shadow=0;labelBackgroundColor=none;edgeStyle=orthogonalEdgeStyle;" edge="1" parent="WIyWlLk6GJQsqaUBKTNV-1">
          <mxGeometry x="-0.1236" y="10" relative="1" as="geometry">
            <mxPoint as="offset" />
            <mxPoint x="1380" y="420.0700000000003" as="sourcePoint" />
            <mxPoint x="1450" y="420.5699999999998" as="targetPoint" />
            <Array as="points">
              <mxPoint x="1439" y="420.07000000000005" />
              <mxPoint x="1439" y="420.07000000000005" />
            </Array>
          </mxGeometry>
        </mxCell>
        <mxCell id="IGH-7e76oPTL0IEZaC5h-76" value="Regresar al modo de creación de incidencia en el paso actual" style="rounded=1;whiteSpace=wrap;html=1;fontSize=11;" vertex="1" parent="WIyWlLk6GJQsqaUBKTNV-1">
          <mxGeometry x="1830" y="390" width="120" height="60" as="geometry" />
        </mxCell>
        <mxCell id="IGH-7e76oPTL0IEZaC5h-77" value="&lt;span style=&quot;font-size: 10px;&quot;&gt;Contiene una opción válida?&lt;/span&gt;" style="rhombus;whiteSpace=wrap;html=1;shadow=0;fontFamily=Helvetica;fontSize=12;align=center;strokeWidth=1;spacing=6;spacingTop=-4;" vertex="1" parent="WIyWlLk6GJQsqaUBKTNV-1">
          <mxGeometry x="1450" y="365" width="120" height="110" as="geometry" />
        </mxCell>
        <mxCell id="IGH-7e76oPTL0IEZaC5h-78" value="Aumentar los strikes&amp;nbsp; Enviar mensaje de error y opciones" style="rounded=1;whiteSpace=wrap;html=1;fontSize=11;glass=0;strokeWidth=1;shadow=0;" vertex="1" parent="WIyWlLk6GJQsqaUBKTNV-1">
          <mxGeometry x="1450" y="526" width="120" height="40" as="geometry" />
        </mxCell>
        <mxCell id="IGH-7e76oPTL0IEZaC5h-79" value="No" style="edgeStyle=orthogonalEdgeStyle;rounded=0;html=1;jettySize=auto;orthogonalLoop=1;fontSize=11;endArrow=block;endFill=0;endSize=8;strokeWidth=1;shadow=0;labelBackgroundColor=none;entryX=0.5;entryY=0;entryDx=0;entryDy=0;" edge="1" parent="WIyWlLk6GJQsqaUBKTNV-1">
          <mxGeometry x="-0.2" y="9" relative="1" as="geometry">
            <mxPoint as="offset" />
            <mxPoint x="1509.29" y="475" as="sourcePoint" />
            <mxPoint x="1509.29" y="525" as="targetPoint" />
          </mxGeometry>
        </mxCell>
        <mxCell id="IGH-7e76oPTL0IEZaC5h-80" value="Yes" style="rounded=0;html=1;jettySize=auto;orthogonalLoop=1;fontSize=11;endArrow=block;endFill=0;endSize=8;strokeWidth=1;shadow=0;labelBackgroundColor=none;edgeStyle=orthogonalEdgeStyle;" edge="1" parent="WIyWlLk6GJQsqaUBKTNV-1">
          <mxGeometry x="-0.1236" y="10" relative="1" as="geometry">
            <mxPoint as="offset" />
            <mxPoint x="1570" y="419.1700000000002" as="sourcePoint" />
            <mxPoint x="1640" y="419.66999999999973" as="targetPoint" />
            <Array as="points">
              <mxPoint x="1629" y="419.1700000000001" />
              <mxPoint x="1629" y="419.1700000000001" />
            </Array>
          </mxGeometry>
        </mxCell>
        <mxCell id="IGH-7e76oPTL0IEZaC5h-81" value="&lt;span style=&quot;font-size: 10px;&quot;&gt;Contiene &quot;Volver&quot; &lt;br&gt;en el mensaje?&lt;/span&gt;" style="rhombus;whiteSpace=wrap;html=1;shadow=0;fontFamily=Helvetica;fontSize=12;align=center;strokeWidth=1;spacing=6;spacingTop=-4;" vertex="1" parent="WIyWlLk6GJQsqaUBKTNV-1">
          <mxGeometry x="1640" y="364" width="120" height="110" as="geometry" />
        </mxCell>
        <mxCell id="IGH-7e76oPTL0IEZaC5h-83" value="No" style="edgeStyle=orthogonalEdgeStyle;rounded=0;html=1;jettySize=auto;orthogonalLoop=1;fontSize=11;endArrow=block;endFill=0;endSize=8;strokeWidth=1;shadow=0;labelBackgroundColor=none;entryX=0.5;entryY=0;entryDx=0;entryDy=0;" edge="1" parent="WIyWlLk6GJQsqaUBKTNV-1">
          <mxGeometry x="-0.2" y="9" relative="1" as="geometry">
            <mxPoint as="offset" />
            <mxPoint x="1699.29" y="474" as="sourcePoint" />
            <mxPoint x="1699.29" y="524.0000000000002" as="targetPoint" />
          </mxGeometry>
        </mxCell>
        <mxCell id="IGH-7e76oPTL0IEZaC5h-84" value="Yes" style="rounded=0;html=1;jettySize=auto;orthogonalLoop=1;fontSize=11;endArrow=block;endFill=0;endSize=8;strokeWidth=1;shadow=0;labelBackgroundColor=none;edgeStyle=orthogonalEdgeStyle;" edge="1" parent="WIyWlLk6GJQsqaUBKTNV-1">
          <mxGeometry x="-0.1236" y="10" relative="1" as="geometry">
            <mxPoint as="offset" />
            <mxPoint x="1760" y="418.1700000000001" as="sourcePoint" />
            <mxPoint x="1830" y="418.6699999999996" as="targetPoint" />
            <Array as="points">
              <mxPoint x="1819" y="418.1700000000001" />
              <mxPoint x="1819" y="418.1700000000001" />
            </Array>
          </mxGeometry>
        </mxCell>
        <mxCell id="IGH-7e76oPTL0IEZaC5h-85" value="Devolver mensaje acorde con el paso de creación" style="rounded=1;whiteSpace=wrap;html=1;fontSize=11;" vertex="1" parent="WIyWlLk6GJQsqaUBKTNV-1">
          <mxGeometry x="1640" y="526" width="120" height="60" as="geometry" />
        </mxCell>
        <mxCell id="IGH-7e76oPTL0IEZaC5h-86" value="Pasaron 7 &lt;br&gt;días desde la verificación?" style="rhombus;whiteSpace=wrap;html=1;shadow=0;fontFamily=Helvetica;fontSize=10;align=center;strokeWidth=1;spacing=6;spacingTop=-4;" vertex="1" parent="WIyWlLk6GJQsqaUBKTNV-1">
          <mxGeometry x="610" y="-120" width="100" height="80" as="geometry" />
        </mxCell>
        <mxCell id="IGH-7e76oPTL0IEZaC5h-87" value="Cambiar estado a usuario" style="rounded=1;whiteSpace=wrap;html=1;fontSize=12;glass=0;strokeWidth=1;shadow=0;" vertex="1" parent="WIyWlLk6GJQsqaUBKTNV-1">
          <mxGeometry x="600" y="10" width="120" height="40" as="geometry" />
        </mxCell>
        <mxCell id="IGH-7e76oPTL0IEZaC5h-88" value="Yes" style="rounded=0;html=1;jettySize=auto;orthogonalLoop=1;fontSize=11;endArrow=block;endFill=0;endSize=8;strokeWidth=1;shadow=0;labelBackgroundColor=none;edgeStyle=orthogonalEdgeStyle;entryX=0.5;entryY=0;entryDx=0;entryDy=0;" edge="1" parent="WIyWlLk6GJQsqaUBKTNV-1" target="IGH-7e76oPTL0IEZaC5h-87">
          <mxGeometry x="-0.2098" y="21" relative="1" as="geometry">
            <mxPoint as="offset" />
            <mxPoint x="659.4100000000003" y="-40" as="sourcePoint" />
            <mxPoint x="660" y="-10" as="targetPoint" />
            <Array as="points" />
          </mxGeometry>
        </mxCell>
        <mxCell id="IGH-7e76oPTL0IEZaC5h-89" value="" style="endArrow=block;html=1;rounded=0;fontSize=10;exitX=1;exitY=0.5;exitDx=0;exitDy=0;endFill=0;entryX=0;entryY=0.5;entryDx=0;entryDy=0;" edge="1" parent="WIyWlLk6GJQsqaUBKTNV-1" source="IGH-7e76oPTL0IEZaC5h-74" target="IGH-7e76oPTL0IEZaC5h-91">
          <mxGeometry width="50" height="50" relative="1" as="geometry">
            <mxPoint x="1650" y="760" as="sourcePoint" />
            <mxPoint x="1650" y="640" as="targetPoint" />
          </mxGeometry>
        </mxCell>
        <mxCell id="IGH-7e76oPTL0IEZaC5h-90" value="" style="endArrow=block;html=1;rounded=0;fontSize=10;exitX=0.5;exitY=1;exitDx=0;exitDy=0;endFill=0;entryX=0.5;entryY=0;entryDx=0;entryDy=0;" edge="1" parent="WIyWlLk6GJQsqaUBKTNV-1" source="IGH-7e76oPTL0IEZaC5h-85" target="IGH-7e76oPTL0IEZaC5h-91">
          <mxGeometry width="50" height="50" relative="1" as="geometry">
            <mxPoint x="1650" y="760" as="sourcePoint" />
            <mxPoint x="1700" y="630" as="targetPoint" />
          </mxGeometry>
        </mxCell>
        <mxCell id="IGH-7e76oPTL0IEZaC5h-94" style="edgeStyle=orthogonalEdgeStyle;rounded=0;orthogonalLoop=1;jettySize=auto;html=1;exitX=1;exitY=0.5;exitDx=0;exitDy=0;fontSize=10;endArrow=block;endFill=0;" edge="1" parent="WIyWlLk6GJQsqaUBKTNV-1" source="IGH-7e76oPTL0IEZaC5h-91">
          <mxGeometry relative="1" as="geometry">
            <mxPoint x="1820" y="686.6666666666667" as="targetPoint" />
          </mxGeometry>
        </mxCell>
        <mxCell id="IGH-7e76oPTL0IEZaC5h-91" value="Pasos de incidencias" style="ellipse;whiteSpace=wrap;html=1;aspect=fixed;fontSize=10;" vertex="1" parent="WIyWlLk6GJQsqaUBKTNV-1">
          <mxGeometry x="1660" y="647" width="80" height="80" as="geometry" />
        </mxCell>
        <mxCell id="IGH-7e76oPTL0IEZaC5h-128" style="edgeStyle=orthogonalEdgeStyle;rounded=0;orthogonalLoop=1;jettySize=auto;html=1;exitX=1;exitY=0.5;exitDx=0;exitDy=0;entryX=0;entryY=0.5;entryDx=0;entryDy=0;fontSize=10;endArrow=block;endFill=0;" edge="1" parent="WIyWlLk6GJQsqaUBKTNV-1" source="IGH-7e76oPTL0IEZaC5h-95" target="IGH-7e76oPTL0IEZaC5h-123">
          <mxGeometry relative="1" as="geometry" />
        </mxCell>
        <mxCell id="IGH-7e76oPTL0IEZaC5h-95" value="Paso 1: Selección de proyecto.&lt;br&gt;(Se envían los proyectos disponibles)" style="rounded=0;whiteSpace=wrap;html=1;fontSize=10;" vertex="1" parent="WIyWlLk6GJQsqaUBKTNV-1">
          <mxGeometry x="1820" y="657" width="120" height="60" as="geometry" />
        </mxCell>
        <mxCell id="IGH-7e76oPTL0IEZaC5h-129" style="edgeStyle=orthogonalEdgeStyle;rounded=0;orthogonalLoop=1;jettySize=auto;html=1;exitX=1;exitY=0.5;exitDx=0;exitDy=0;entryX=0;entryY=0.5;entryDx=0;entryDy=0;fontSize=10;endArrow=block;endFill=0;" edge="1" parent="WIyWlLk6GJQsqaUBKTNV-1" source="IGH-7e76oPTL0IEZaC5h-96" target="IGH-7e76oPTL0IEZaC5h-124">
          <mxGeometry relative="1" as="geometry" />
        </mxCell>
        <mxCell id="IGH-7e76oPTL0IEZaC5h-96" value="Paso 2: Selección de usuarios.&lt;br&gt;(Se envían los usuarios del proyecto)" style="rounded=0;whiteSpace=wrap;html=1;fontSize=10;" vertex="1" parent="WIyWlLk6GJQsqaUBKTNV-1">
          <mxGeometry x="1820" y="740" width="120" height="60" as="geometry" />
        </mxCell>
        <mxCell id="IGH-7e76oPTL0IEZaC5h-101" value="" style="endArrow=classic;html=1;rounded=0;fontSize=10;exitX=0.5;exitY=1;exitDx=0;exitDy=0;entryX=0.5;entryY=0;entryDx=0;entryDy=0;" edge="1" parent="WIyWlLk6GJQsqaUBKTNV-1" source="IGH-7e76oPTL0IEZaC5h-95" target="IGH-7e76oPTL0IEZaC5h-96">
          <mxGeometry width="50" height="50" relative="1" as="geometry">
            <mxPoint x="1960" y="650" as="sourcePoint" />
            <mxPoint x="2010" y="600" as="targetPoint" />
          </mxGeometry>
        </mxCell>
        <mxCell id="IGH-7e76oPTL0IEZaC5h-102" value="Paso 3: Titulo de la incidencia" style="rounded=0;whiteSpace=wrap;html=1;fontSize=10;" vertex="1" parent="WIyWlLk6GJQsqaUBKTNV-1">
          <mxGeometry x="1820" y="823" width="120" height="60" as="geometry" />
        </mxCell>
        <mxCell id="IGH-7e76oPTL0IEZaC5h-103" value="" style="endArrow=classic;html=1;rounded=0;fontSize=10;exitX=0.5;exitY=1;exitDx=0;exitDy=0;entryX=0.5;entryY=0;entryDx=0;entryDy=0;" edge="1" parent="WIyWlLk6GJQsqaUBKTNV-1" target="IGH-7e76oPTL0IEZaC5h-102">
          <mxGeometry width="50" height="50" relative="1" as="geometry">
            <mxPoint x="1880" y="800" as="sourcePoint" />
            <mxPoint x="2010" y="683" as="targetPoint" />
          </mxGeometry>
        </mxCell>
        <mxCell id="IGH-7e76oPTL0IEZaC5h-105" value="Paso 3: Titulo de la incidencia" style="rounded=0;whiteSpace=wrap;html=1;fontSize=10;" vertex="1" parent="WIyWlLk6GJQsqaUBKTNV-1">
          <mxGeometry x="1820" y="906" width="120" height="60" as="geometry" />
        </mxCell>
        <mxCell id="IGH-7e76oPTL0IEZaC5h-106" value="" style="endArrow=classic;html=1;rounded=0;fontSize=10;exitX=0.5;exitY=1;exitDx=0;exitDy=0;entryX=0.5;entryY=0;entryDx=0;entryDy=0;" edge="1" parent="WIyWlLk6GJQsqaUBKTNV-1" target="IGH-7e76oPTL0IEZaC5h-105">
          <mxGeometry width="50" height="50" relative="1" as="geometry">
            <mxPoint x="1880" y="883" as="sourcePoint" />
            <mxPoint x="2010" y="766" as="targetPoint" />
          </mxGeometry>
        </mxCell>
        <mxCell id="IGH-7e76oPTL0IEZaC5h-130" style="edgeStyle=orthogonalEdgeStyle;rounded=0;orthogonalLoop=1;jettySize=auto;html=1;exitX=1;exitY=0.5;exitDx=0;exitDy=0;entryX=0;entryY=0.5;entryDx=0;entryDy=0;fontSize=10;endArrow=block;endFill=0;" edge="1" parent="WIyWlLk6GJQsqaUBKTNV-1" source="IGH-7e76oPTL0IEZaC5h-107" target="IGH-7e76oPTL0IEZaC5h-125">
          <mxGeometry relative="1" as="geometry" />
        </mxCell>
        <mxCell id="IGH-7e76oPTL0IEZaC5h-107" value="Paso 4: Tipo de la incidencia" style="rounded=0;whiteSpace=wrap;html=1;fontSize=10;" vertex="1" parent="WIyWlLk6GJQsqaUBKTNV-1">
          <mxGeometry x="1820" y="989" width="120" height="60" as="geometry" />
        </mxCell>
        <mxCell id="IGH-7e76oPTL0IEZaC5h-108" value="" style="endArrow=classic;html=1;rounded=0;fontSize=10;exitX=0.5;exitY=1;exitDx=0;exitDy=0;entryX=0.5;entryY=0;entryDx=0;entryDy=0;" edge="1" parent="WIyWlLk6GJQsqaUBKTNV-1" target="IGH-7e76oPTL0IEZaC5h-107">
          <mxGeometry width="50" height="50" relative="1" as="geometry">
            <mxPoint x="1880" y="966" as="sourcePoint" />
            <mxPoint x="2010" y="849" as="targetPoint" />
          </mxGeometry>
        </mxCell>
        <mxCell id="IGH-7e76oPTL0IEZaC5h-109" value="Paso 5: Prioridad de la incidencia" style="rounded=0;whiteSpace=wrap;html=1;fontSize=10;" vertex="1" parent="WIyWlLk6GJQsqaUBKTNV-1">
          <mxGeometry x="1820" y="1072" width="120" height="60" as="geometry" />
        </mxCell>
        <mxCell id="IGH-7e76oPTL0IEZaC5h-110" value="" style="endArrow=classic;html=1;rounded=0;fontSize=10;exitX=0.5;exitY=1;exitDx=0;exitDy=0;entryX=0.5;entryY=0;entryDx=0;entryDy=0;" edge="1" parent="WIyWlLk6GJQsqaUBKTNV-1" target="IGH-7e76oPTL0IEZaC5h-109">
          <mxGeometry width="50" height="50" relative="1" as="geometry">
            <mxPoint x="1880" y="1049" as="sourcePoint" />
            <mxPoint x="2010" y="932" as="targetPoint" />
          </mxGeometry>
        </mxCell>
        <mxCell id="IGH-7e76oPTL0IEZaC5h-111" value="Paso 6: Descripción de la incidencia" style="rounded=0;whiteSpace=wrap;html=1;fontSize=10;" vertex="1" parent="WIyWlLk6GJQsqaUBKTNV-1">
          <mxGeometry x="1820" y="1155" width="120" height="60" as="geometry" />
        </mxCell>
        <mxCell id="IGH-7e76oPTL0IEZaC5h-112" value="" style="endArrow=classic;html=1;rounded=0;fontSize=10;exitX=0.5;exitY=1;exitDx=0;exitDy=0;entryX=0.5;entryY=0;entryDx=0;entryDy=0;" edge="1" parent="WIyWlLk6GJQsqaUBKTNV-1" target="IGH-7e76oPTL0IEZaC5h-111">
          <mxGeometry width="50" height="50" relative="1" as="geometry">
            <mxPoint x="1880" y="1132" as="sourcePoint" />
            <mxPoint x="2010" y="1015" as="targetPoint" />
          </mxGeometry>
        </mxCell>
        <mxCell id="IGH-7e76oPTL0IEZaC5h-131" style="edgeStyle=orthogonalEdgeStyle;rounded=0;orthogonalLoop=1;jettySize=auto;html=1;exitX=1;exitY=0.5;exitDx=0;exitDy=0;entryX=0;entryY=0.5;entryDx=0;entryDy=0;fontSize=10;endArrow=block;endFill=0;" edge="1" parent="WIyWlLk6GJQsqaUBKTNV-1" source="IGH-7e76oPTL0IEZaC5h-113" target="IGH-7e76oPTL0IEZaC5h-126">
          <mxGeometry relative="1" as="geometry" />
        </mxCell>
        <mxCell id="IGH-7e76oPTL0IEZaC5h-113" value="Paso 7: Imagen de la incidencia" style="rounded=0;whiteSpace=wrap;html=1;fontSize=10;" vertex="1" parent="WIyWlLk6GJQsqaUBKTNV-1">
          <mxGeometry x="1820" y="1238" width="120" height="60" as="geometry" />
        </mxCell>
        <mxCell id="IGH-7e76oPTL0IEZaC5h-114" value="" style="endArrow=classic;html=1;rounded=0;fontSize=10;exitX=0.5;exitY=1;exitDx=0;exitDy=0;entryX=0.5;entryY=0;entryDx=0;entryDy=0;" edge="1" parent="WIyWlLk6GJQsqaUBKTNV-1" target="IGH-7e76oPTL0IEZaC5h-113">
          <mxGeometry width="50" height="50" relative="1" as="geometry">
            <mxPoint x="1880" y="1215" as="sourcePoint" />
            <mxPoint x="2010" y="1098" as="targetPoint" />
          </mxGeometry>
        </mxCell>
        <mxCell id="IGH-7e76oPTL0IEZaC5h-132" style="edgeStyle=orthogonalEdgeStyle;rounded=0;orthogonalLoop=1;jettySize=auto;html=1;exitX=1;exitY=0.5;exitDx=0;exitDy=0;entryX=0;entryY=0.5;entryDx=0;entryDy=0;fontSize=10;endArrow=block;endFill=0;" edge="1" parent="WIyWlLk6GJQsqaUBKTNV-1" source="IGH-7e76oPTL0IEZaC5h-115" target="IGH-7e76oPTL0IEZaC5h-127">
          <mxGeometry relative="1" as="geometry" />
        </mxCell>
        <mxCell id="IGH-7e76oPTL0IEZaC5h-115" value="Paso 8: Ubicación de la incidencia" style="rounded=0;whiteSpace=wrap;html=1;fontSize=10;" vertex="1" parent="WIyWlLk6GJQsqaUBKTNV-1">
          <mxGeometry x="1820" y="1321" width="120" height="60" as="geometry" />
        </mxCell>
        <mxCell id="IGH-7e76oPTL0IEZaC5h-116" value="" style="endArrow=classic;html=1;rounded=0;fontSize=10;exitX=0.5;exitY=1;exitDx=0;exitDy=0;entryX=0.5;entryY=0;entryDx=0;entryDy=0;" edge="1" parent="WIyWlLk6GJQsqaUBKTNV-1" target="IGH-7e76oPTL0IEZaC5h-115">
          <mxGeometry width="50" height="50" relative="1" as="geometry">
            <mxPoint x="1880" y="1298" as="sourcePoint" />
            <mxPoint x="2010" y="1181" as="targetPoint" />
          </mxGeometry>
        </mxCell>
        <mxCell id="IGH-7e76oPTL0IEZaC5h-117" value="Paso 9: Descripción de la ubicación" style="rounded=0;whiteSpace=wrap;html=1;fontSize=10;" vertex="1" parent="WIyWlLk6GJQsqaUBKTNV-1">
          <mxGeometry x="1820" y="1403" width="120" height="60" as="geometry" />
        </mxCell>
        <mxCell id="IGH-7e76oPTL0IEZaC5h-118" value="" style="endArrow=classic;html=1;rounded=0;fontSize=10;exitX=0.5;exitY=1;exitDx=0;exitDy=0;entryX=0.5;entryY=0;entryDx=0;entryDy=0;" edge="1" parent="WIyWlLk6GJQsqaUBKTNV-1" target="IGH-7e76oPTL0IEZaC5h-117">
          <mxGeometry width="50" height="50" relative="1" as="geometry">
            <mxPoint x="1880" y="1380" as="sourcePoint" />
            <mxPoint x="2010" y="1263" as="targetPoint" />
          </mxGeometry>
        </mxCell>
        <mxCell id="IGH-7e76oPTL0IEZaC5h-122" style="edgeStyle=orthogonalEdgeStyle;rounded=0;orthogonalLoop=1;jettySize=auto;html=1;exitX=0.5;exitY=1;exitDx=0;exitDy=0;entryX=0.5;entryY=0;entryDx=0;entryDy=0;fontSize=10;endArrow=block;endFill=0;" edge="1" parent="WIyWlLk6GJQsqaUBKTNV-1" source="IGH-7e76oPTL0IEZaC5h-119" target="IGH-7e76oPTL0IEZaC5h-121">
          <mxGeometry relative="1" as="geometry" />
        </mxCell>
        <mxCell id="IGH-7e76oPTL0IEZaC5h-119" value="Paso 10: Verificación de los datos ingresados" style="rounded=0;whiteSpace=wrap;html=1;fontSize=10;" vertex="1" parent="WIyWlLk6GJQsqaUBKTNV-1">
          <mxGeometry x="1820" y="1486" width="120" height="60" as="geometry" />
        </mxCell>
        <mxCell id="IGH-7e76oPTL0IEZaC5h-120" value="" style="endArrow=classic;html=1;rounded=0;fontSize=10;exitX=0.5;exitY=1;exitDx=0;exitDy=0;entryX=0.5;entryY=0;entryDx=0;entryDy=0;" edge="1" parent="WIyWlLk6GJQsqaUBKTNV-1" target="IGH-7e76oPTL0IEZaC5h-119">
          <mxGeometry width="50" height="50" relative="1" as="geometry">
            <mxPoint x="1880" y="1463" as="sourcePoint" />
            <mxPoint x="2010" y="1346" as="targetPoint" />
          </mxGeometry>
        </mxCell>
        <mxCell id="IGH-7e76oPTL0IEZaC5h-121" value="Envío de incidencia y cierre de conversación" style="rounded=1;whiteSpace=wrap;html=1;fontSize=10;" vertex="1" parent="WIyWlLk6GJQsqaUBKTNV-1">
          <mxGeometry x="1820" y="1570" width="120" height="60" as="geometry" />
        </mxCell>
        <mxCell id="IGH-7e76oPTL0IEZaC5h-123" value="Query de proyectos" style="rounded=0;whiteSpace=wrap;html=1;fontSize=10;" vertex="1" parent="WIyWlLk6GJQsqaUBKTNV-1">
          <mxGeometry x="1970" y="657" width="120" height="60" as="geometry" />
        </mxCell>
        <mxCell id="IGH-7e76oPTL0IEZaC5h-124" value="Query de usuarios" style="rounded=0;whiteSpace=wrap;html=1;fontSize=10;" vertex="1" parent="WIyWlLk6GJQsqaUBKTNV-1">
          <mxGeometry x="1970" y="740" width="120" height="60" as="geometry" />
        </mxCell>
        <mxCell id="IGH-7e76oPTL0IEZaC5h-125" value="A futuro Query de tipos dinamicos" style="rounded=0;whiteSpace=wrap;html=1;fontSize=10;" vertex="1" parent="WIyWlLk6GJQsqaUBKTNV-1">
          <mxGeometry x="1990" y="989" width="120" height="60" as="geometry" />
        </mxCell>
        <mxCell id="IGH-7e76oPTL0IEZaC5h-126" value="Procedimiento en backend de manejo de multimedia" style="rounded=0;whiteSpace=wrap;html=1;fontSize=10;" vertex="1" parent="WIyWlLk6GJQsqaUBKTNV-1">
          <mxGeometry x="2000" y="1238" width="120" height="60" as="geometry" />
        </mxCell>
        <mxCell id="IGH-7e76oPTL0IEZaC5h-127" value="Recuperación en frontend de la ubicación" style="rounded=0;whiteSpace=wrap;html=1;fontSize=10;" vertex="1" parent="WIyWlLk6GJQsqaUBKTNV-1">
          <mxGeometry x="2000" y="1321" width="120" height="60" as="geometry" />
        </mxCell>
      </root>
    </mxGraphModel>
  </diagram>
</mxfile>
